P3
2 4
255
110 115 119
120 125 129
130 135 139
140 145 149
150 155 159
160 165 169
170 175 179
180 185 189
