P3
2 4
255
68 70 73
69 72 74
100 104 107
103 106 109
115 119 122
118 121 124
94 97 99
96 98 101
