P3
2 4
255
114 114 114
124 124 124
134 134 134
144 144 144
154 154 154
164 164 164
174 174 174
184 184 184
