P3
2 4
255
154 132 106
167 144 116
181 156 125
194 167 135
208 179 144
221 191 153
235 202 163
248 214 172
