P3
2 4
255
209 218 225
176 184 190
255 255 255
255 255 255
255 255 255
255 255 255
255 255 255
255 255 255
