P3
4 2
255
50 55 59
60 65 69
70 75 79
80 85 89
10 15 19
20 25 29
30 35 39
40 46 49
